<?xml version="1.0" encoding="UTF-8" standalone="no"?>
<svg className="moonlight" width="300px" height="1019px" viewBox="0 0 300 1019" version="1.1" xmlns="http://www.w3.org/2000/svg" xmlns:xlink="http://www.w3.org/1999/xlink">
    <style>
    /* <![CDATA[ */
    g#Oval use {
        animation-name: changeColor;
        animation-duration: 10s;
        animation-delay: 2s;
        animation-iteration-count: infinite;
        animation-timing-function: ease-out;
    }
    @keyframes changeColor {
        0% {
        fill: #F8E81C;
        }

        50% {
        fill: red;
        }

    }
    /* ]]> */
        </style>
    <title>Moonlight tower</title>
    <desc>Austin moonlight tower</desc>
    <defs>
        <ellipse id="path-1" cx="15" cy="41" rx="10" ry="7"></ellipse>
        <filter x="-87.5%" y="-110.7%" width="275.0%" height="350.0%" filterUnits="objectBoundingBox" id="filter-2">
            <feOffset dx="0" dy="2" in="SourceAlpha" result="shadowOffsetOuter1"></feOffset>
            <feGaussianBlur stdDeviation="5.5" in="shadowOffsetOuter1" result="shadowBlurOuter1"></feGaussianBlur>
            <feColorMatrix values="0 0 0 0 0.970775187   0 0 0 0 0.907238424   0 0 0 0 0.109462149  0 0 0 1 0" type="matrix" in="shadowBlurOuter1"></feColorMatrix>
        </filter>
        <ellipse id="path-3" cx="15" cy="41" rx="10" ry="7"></ellipse>
        <filter x="-87.5%" y="-110.7%" width="275.0%" height="350.0%" filterUnits="objectBoundingBox" id="filter-4">
            <feOffset dx="0" dy="2" in="SourceAlpha" result="shadowOffsetOuter1"></feOffset>
            <feGaussianBlur stdDeviation="5.5" in="shadowOffsetOuter1" result="shadowBlurOuter1"></feGaussianBlur>
            <feColorMatrix values="0 0 0 0 0.970775187   0 0 0 0 0.907238424   0 0 0 0 0.109462149  0 0 0 1 0" type="matrix" in="shadowBlurOuter1"></feColorMatrix>
        </filter>
        <ellipse id="path-5" cx="15" cy="41" rx="10" ry="7"></ellipse>
        <filter x="-87.5%" y="-110.7%" width="275.0%" height="350.0%" filterUnits="objectBoundingBox" id="filter-6">
            <feOffset dx="0" dy="2" in="SourceAlpha" result="shadowOffsetOuter1"></feOffset>
            <feGaussianBlur stdDeviation="5.5" in="shadowOffsetOuter1" result="shadowBlurOuter1"></feGaussianBlur>
            <feColorMatrix values="0 0 0 0 0.970775187   0 0 0 0 0.907238424   0 0 0 0 0.109462149  0 0 0 1 0" type="matrix" in="shadowBlurOuter1"></feColorMatrix>
        </filter>
        <ellipse id="path-7" cx="11.5" cy="31.6041667" rx="7.66666667" ry="5.39583333"></ellipse>
        <filter x="-114.1%" y="-143.6%" width="328.3%" height="424.3%" filterUnits="objectBoundingBox" id="filter-8">
            <feOffset dx="0" dy="2" in="SourceAlpha" result="shadowOffsetOuter1"></feOffset>
            <feGaussianBlur stdDeviation="5.5" in="shadowOffsetOuter1" result="shadowBlurOuter1"></feGaussianBlur>
            <feColorMatrix values="0 0 0 0 0.970775187   0 0 0 0 0.907238424   0 0 0 0 0.109462149  0 0 0 1 0" type="matrix" in="shadowBlurOuter1"></feColorMatrix>
        </filter>
        <ellipse id="path-9" cx="11.5" cy="31.6041667" rx="7.66666667" ry="5.39583333"></ellipse>
        <filter x="-114.1%" y="-143.6%" width="328.3%" height="424.3%" filterUnits="objectBoundingBox" id="filter-10">
            <feOffset dx="0" dy="2" in="SourceAlpha" result="shadowOffsetOuter1"></feOffset>
            <feGaussianBlur stdDeviation="5.5" in="shadowOffsetOuter1" result="shadowBlurOuter1"></feGaussianBlur>
            <feColorMatrix values="0 0 0 0 0.970775187   0 0 0 0 0.907238424   0 0 0 0 0.109462149  0 0 0 1 0" type="matrix" in="shadowBlurOuter1"></feColorMatrix>
        </filter>
        <ellipse id="path-11" cx="10" cy="29.0416667" rx="6.66666667" ry="4.95833333"></ellipse>
        <filter x="-131.2%" y="-156.3%" width="362.5%" height="452.9%" filterUnits="objectBoundingBox" id="filter-12">
            <feOffset dx="0" dy="2" in="SourceAlpha" result="shadowOffsetOuter1"></feOffset>
            <feGaussianBlur stdDeviation="5.5" in="shadowOffsetOuter1" result="shadowBlurOuter1"></feGaussianBlur>
            <feColorMatrix values="0 0 0 0 0.970775187   0 0 0 0 0.907238424   0 0 0 0 0.109462149  0 0 0 1 0" type="matrix" in="shadowBlurOuter1"></feColorMatrix>
        </filter>
    </defs>
    <g id="Page-1" stroke="none" stroke-width="1" fill="none" fill-rule="evenodd">
        <g id="iPad-Portrait">
            <path d="M57.5,165.5 L57.5,110.5" id="Line" stroke="#979797" stroke-width="3" stroke-linecap="square"></path>
            <path d="M243.5,165.5 L243.5,111.5" id="Line-Copy-2" stroke="#979797" stroke-width="3" stroke-linecap="square" transform="translate(243.500000, 138.500000) scale(-1, 1) translate(-243.500000, -138.500000) "></path>
            <g id="Group" transform="translate(86.000000, 170.000000)" stroke="#979797" stroke-width="3" stroke-linecap="square">
                <polyline id="backbar1" points="0 0.240740741 16.7536485 3.54358892 63.5 12.7592593"></polyline>
                <path d="M65.5,0.240740741 L126.587484,12.6658988" id="backbar2" transform="translate(96.500000, 6.500000) scale(-1, 1) translate(-96.500000, -6.500000) "></path>
            </g>
            <g id="Group-Copy" transform="translate(86.000000, 371.000000)" stroke="#979797" stroke-width="3" stroke-linecap="square">
                <polyline id="backbar1" points="0 0.259259259 16.7536485 3.81617268 63.5 13.7407407"></polyline>
                <path d="M65.5,0.259259259 L126.587484,13.6401987" id="backbar2" transform="translate(96.500000, 7.000000) scale(-1, 1) translate(-96.500000, -7.000000) "></path>
            </g>
            <g id="Group-Copy-2" transform="translate(86.000000, 550.000000)" stroke="#979797" stroke-width="3" stroke-linecap="square">
                <polyline id="backbar1" points="0 0.240740741 16.7536485 3.54358892 63.5 12.7592593"></polyline>
                <path d="M65.5,0.240740741 L126.587484,12.6658988" id="backbar2" transform="translate(96.500000, 6.500000) scale(-1, 1) translate(-96.500000, -6.500000) "></path>
            </g>
            <g id="Group-Copy-3" transform="translate(86.000000, 741.000000)" stroke="#979797" stroke-width="3" stroke-linecap="square">
                <polyline id="backbar1" points="0 0.240740741 16.7536485 3.54358892 63.5 12.7592593"></polyline>
                <path d="M65.5,0.240740741 L126.587484,12.6658988" id="backbar2" transform="translate(96.500000, 6.500000) scale(-1, 1) translate(-96.500000, -6.500000) "></path>
            </g>
            <g id="Group-Copy-4" transform="translate(86.000000, 929.000000)" stroke="#979797" stroke-width="3" stroke-linecap="square">
                <polyline id="backbar1" points="0 0.240740741 16.7536485 3.54358892 63.5 12.7592593"></polyline>
                <path d="M65.5,0.240740741 L126.587484,12.6658988" id="backbar2" transform="translate(96.500000, 6.500000) scale(-1, 1) translate(-96.500000, -6.500000) "></path>
            </g>
            <g id="Group-2" transform="translate(85.000000, 738.000000)" stroke="#979797" stroke-linecap="square">
                <path d="M0.5,3.46774194 L66.5,214.504608" id="Line"></path>
                <path d="M65.5,0.495391705 L131.5,211.532258" id="Line-Copy-3" transform="translate(98.500000, 106.013825) scale(-1, 1) translate(-98.500000, -106.013825) "></path>
            </g>
            <g id="Group-2-Copy-3" transform="translate(85.000000, 923.000000)" stroke="#979797" stroke-linecap="square">
                <path d="M0.5,3.5 L66.5,216.5" id="Line"></path>
                <path d="M65.5,0.5 L131.5,213.5" id="Line-Copy-3" transform="translate(98.500000, 107.000000) scale(-1, 1) translate(-98.500000, -107.000000) "></path>
            </g>
            <g id="Group-2-Copy" transform="translate(85.000000, 548.000000)" stroke="#979797" stroke-linecap="square">
                <path d="M0.5,3.38709677 L66.5,209.516129" id="Line"></path>
                <path d="M65.5,0.483870968 L131.5,206.612903" id="Line-Copy-3" transform="translate(98.500000, 103.548387) scale(-1, 1) translate(-98.500000, -103.548387) "></path>
            </g>
            <g id="Group-3" transform="translate(84.000000, 372.000000)" stroke-linecap="square" stroke="#979797">
                <g id="Group-2-Copy-2">
                    <path d="M0.5,1.10023041 L64.5,190.512755" id="Line"></path>
                </g>
                <g id="Group-2-Copy-5" transform="translate(100.500000, 95.500000) scale(-1, 1) translate(-100.500000, -95.500000) translate(68.000000, 0.000000)">
                    <path d="M0.5,1.10023041 L64.5,190.512755" id="Line"></path>
                </g>
            </g>
            <path d="M85.5,929.5 L213.5,929.5" id="crossbar1" stroke="#979797" stroke-width="3" stroke-linecap="square"></path>
            <path d="M86.5,739.5 L214.5,739.5" id="crossbar1-copy" stroke="#979797" stroke-width="3" stroke-linecap="square"></path>
            <path d="M86.5,549.5 L214.5,549.5" id="crossbar6" stroke="#979797" stroke-width="3" stroke-linecap="square"></path>
            <path d="M87.5,371.5 L213.5,371.5" id="crossbar7" stroke="#979797" stroke-width="3" stroke-linecap="square"></path>
            <path d="M87.5,278.5 L213.5,278.5" id="crossbar9" stroke="#979797" stroke-width="3" stroke-linecap="square"></path>
            <path d="M88.5,180.5 L214.5,180.5" id="crossbar10" stroke="#979797" stroke-width="3" stroke-linecap="square"></path>
            <path d="M150.5,1019.5 L150.5,7.5" id="Line" stroke="#979797" stroke-width="5" stroke-linecap="square"></path>
            <path d="M215.5,171.5 L215.5,1024.5" id="Line" stroke="#979797" stroke-width="3" stroke-linecap="square"></path>
            <path d="M85.5,172.5 L85.5,1024.5" id="Line" stroke="#979797" stroke-width="3" stroke-linecap="square"></path>
            <path d="M85.5,175.5 L58.3915844,166.15227" id="Line" stroke="#979797" stroke-width="3" stroke-linecap="square"></path>
            <path d="M242.619363,175.5 L216.5,166.171656" id="Line-Copy" stroke="#979797" stroke-width="3" stroke-linecap="square" transform="translate(229.559682, 170.835828) scale(-1, 1) translate(-229.559682, -170.835828) "></path>
            <path d="M87.5,369.5 L149.5,198.5" id="Line" stroke="#979797" stroke-linecap="square"></path>
            <path d="M151.5,199.5 L213.5,371.5" id="Line" stroke="#979797" stroke-linecap="square"></path>
            <path d="M86.5,549.5 L148.5,399.5" id="Line" stroke="#979797" stroke-linecap="square"></path>
            <path d="M215.5,549.5 L152.5,399.5" id="Line" stroke="#979797" stroke-linecap="square"></path>
            <path d="M148.5,384.5 L86.5,170.5" id="Line" stroke="#979797" stroke-linecap="square"></path>
            <path d="M151.5,386.5 L214.5,169.5" id="Line" stroke="#979797" stroke-linecap="square"></path>
            <g id="Group-4" transform="translate(86.000000, 576.000000)" stroke="#979797" stroke-linecap="square">
                <path d="M0.5,165.5 L62.5,0.5" id="Line"></path>
                <path d="M66.5,165.5 L128.5,0.5" id="Line-Copy-4" transform="translate(97.500000, 83.000000) scale(-1, 1) translate(-97.500000, -83.000000) "></path>
            </g>
            <g id="Group-4-Copy" transform="translate(86.000000, 769.000000)" stroke="#979797" stroke-linecap="square">
                <path d="M0.5,160.51506 L62.5,0.484939759" id="Line"></path>
                <path d="M66.5,160.51506 L128.5,0.484939759" id="Line-Copy-4" transform="translate(97.500000, 80.500000) scale(-1, 1) translate(-97.500000, -80.500000) "></path>
            </g>
            <g id="Group-4-Copy-2" transform="translate(86.000000, 955.000000)" stroke="#979797" stroke-linecap="square">
                <path d="M0.5,165.5 L62.5,0.5" id="Line"></path>
                <path d="M66.5,165.5 L128.5,0.5" id="Line-Copy-4" transform="translate(97.500000, 83.000000) scale(-1, 1) translate(-97.500000, -83.000000) "></path>
            </g>
            <path d="M138.5,45.5 L147.5,49.5" id="Line" stroke="#979797" stroke-width="3" stroke-linecap="square"></path>
            <path d="M150.5,6.5 L136.5,42.5" id="Line" stroke="#979797" stroke-linecap="square"></path>
            <path d="M152.5,6.5 L221.5,44.5" id="Line" stroke="#979797" stroke-linecap="square"></path>
            <path d="M165.5,60.5 L152.5,7.5" id="Line" stroke="#979797" stroke-linecap="square"></path>
            <path d="M89.5,60.5 L148.5,7.5" id="Line" stroke="#979797" stroke-linecap="square"></path>
            <path d="M85.5,170.5 L85.5,111.5" id="Line" stroke="#979797" stroke-width="3" stroke-linecap="square"></path>
            <path d="M215.5,169.5 L215.5,109.5" id="Line-Copy-7" stroke="#979797" stroke-width="3" stroke-linecap="square"></path>
            <g id="Group-5" transform="translate(59.000000, 164.000000)" stroke="#979797" stroke-width="3" stroke-linecap="square">
                <path d="M91,0.217354344 C91,0.217354344 94.9147115,-0.0872563968 110.171875,1.71735434 C125.429039,3.52196509 184.5,1.71735434 184.5,1.71735434" id="Line-Copy-8" transform="translate(137.750000, 1.358677) scale(-1, -1) translate(-137.750000, -1.358677) "></path>
                <path d="M5.68434189e-14,0.217354344 C5.68434189e-14,0.217354344 3.91471146,-0.0872563968 19.171875,1.71735434 C34.4290385,3.52196509 93.5,1.71735434 93.5,1.71735434" id="Line-Copy-9" transform="translate(46.750000, 1.358677) scale(1, -1) translate(-46.750000, -1.358677) "></path>
            </g>
            <g id="Group-5-Copy" transform="translate(59.000000, 108.000000)" stroke="#979797" stroke-width="3" stroke-linecap="square">
                <path d="M91,0.217354344 C91,0.217354344 94.9147115,-0.0872563968 110.171875,1.71735434 C125.429039,3.52196509 184.5,1.71735434 184.5,1.71735434" id="Line-Copy-8" transform="translate(137.750000, 1.358677) scale(-1, -1) translate(-137.750000, -1.358677) "></path>
                <path d="M5.68434189e-14,0.217354344 C5.68434189e-14,0.217354344 3.91471146,-0.0872563968 19.171875,1.71735434 C34.4290385,3.52196509 93.5,1.71735434 93.5,1.71735434" id="Line-Copy-9" transform="translate(46.750000, 1.358677) scale(1, -1) translate(-46.750000, -1.358677) "></path>
            </g>
            <g id="Group-5-Copy-2" transform="translate(151.500000, 136.500000) scale(-1, 1) translate(-151.500000, -136.500000) translate(59.000000, 124.000000)" stroke="#979797" stroke-width="2" stroke-linecap="square">
                <path d="M91,22.2173543 C91,22.2173543 94.9147115,21.9127436 110.171875,23.7173543 C125.429039,25.5219651 184.5,23.7173543 184.5,23.7173543" id="Line-Copy-8" transform="translate(137.750000, 23.358677) scale(-1, -1) translate(-137.750000, -23.358677) "></path>
                <path d="M5.68434189e-14,22.2173543 C5.68434189e-14,22.2173543 3.91471146,21.9127436 19.171875,23.7173543 C34.4290385,25.5219651 93.5,23.7173543 93.5,23.7173543" id="Line-Copy-9" transform="translate(46.750000, 23.358677) scale(1, -1) translate(-46.750000, -23.358677) "></path>
                <path d="M91,0.217354344 C91,0.217354344 94.9147115,-0.0872563968 110.171875,1.71735434 C125.429039,3.52196509 184.5,1.71735434 184.5,1.71735434" id="Line-Copy-11" transform="translate(137.750000, 1.358677) scale(-1, -1) translate(-137.750000, -1.358677) "></path>
                <path d="M5.68434189e-14,0.217354344 C5.68434189e-14,0.217354344 3.91471146,-0.0872563968 19.171875,1.71735434 C34.4290385,3.52196509 93.5,1.71735434 93.5,1.71735434" id="Line-Copy-10" transform="translate(46.750000, 1.358677) scale(1, -1) translate(-46.750000, -1.358677) "></path>
            </g>
            <g id="Group-5-Copy-3" transform="translate(151.500000, 127.500000) scale(-1, -1) translate(-151.500000, -127.500000) translate(59.000000, 126.000000)" stroke="#979797" stroke-width="2" stroke-linecap="square">
                <path d="M91,0.217354344 C91,0.217354344 94.9147115,-0.0872563968 110.171875,1.71735434 C125.429039,3.52196509 184.5,1.71735434 184.5,1.71735434" id="Line-Copy-8" transform="translate(137.750000, 1.358677) scale(-1, -1) translate(-137.750000, -1.358677) "></path>
                <path d="M5.68434189e-14,0.217354344 C5.68434189e-14,0.217354344 3.91471146,-0.0872563968 19.171875,1.71735434 C34.4290385,3.52196509 93.5,1.71735434 93.5,1.71735434" id="Line-Copy-9" transform="translate(46.750000, 1.358677) scale(1, -1) translate(-46.750000, -1.358677) "></path>
            </g>
            <g id="Group-6" transform="translate(152.500000, 167.500000) scale(1, -1) translate(-152.500000, -167.500000) translate(60.000000, 166.000000)" stroke="#979797" stroke-width="2" stroke-linecap="square">
                <path d="M91,0.217354344 C91,0.217354344 94.9147115,-0.0872563968 110.171875,1.71735434 C125.429039,3.52196509 184.5,1.71735434 184.5,1.71735434" id="Line-Copy-11" transform="translate(137.750000, 1.358677) scale(-1, -1) translate(-137.750000, -1.358677) "></path>
                <path d="M5.68434189e-14,0.217354344 C5.68434189e-14,0.217354344 3.91471146,-0.0872563968 19.171875,1.71735434 C34.4290385,3.52196509 93.5,1.71735434 93.5,1.71735434" id="Line-Copy-10" transform="translate(46.750000, 1.358677) scale(1, -1) translate(-46.750000, -1.358677) "></path>
            </g>
            <path d="M65.5,49.5 L149.5,49.5" id="Line" stroke="#979797" stroke-width="3" stroke-linecap="square"></path>
            <path d="M152,51 L242,61" id="Line-Copy-6" stroke="#979797" stroke-width="2" stroke-linecap="square"></path>
            <path d="M151.5,49.5 L220.5,45.5" id="Line" stroke="#979797" stroke-width="3" stroke-linecap="square"></path>
            <path d="M90.5,61 L148,51" id="Line" stroke="#979797" stroke-width="2" stroke-linecap="square"></path>
            <path d="M151,52 L164.5,60.5" id="Line" stroke="#979797" stroke-width="2" stroke-linecap="square"></path>
            <path d="M64.5,48.5 L148.5,6.5" id="Line" stroke="#979797" stroke-linecap="square"></path>
            <path d="M241.5,59.5 L151.5,6.5" id="Line" stroke="#979797" stroke-linecap="square"></path>
            <g id="light" transform="translate(63.000000, 73.000000) rotate(5.000000) translate(-63.000000, -73.000000) translate(48.000000, 49.000000)">
                <rect id="Rectangle" fill="#9B9B9B" x="10" y="0" width="11" height="16"></rect>
                <g id="Oval">
                    <use fill="black" fill-opacity="1" filter="url(#filter-2)" xlink:href="#path-1"></use>
                    <use fill="#F8E81C" fill-rule="evenodd" xlink:href="#path-1"></use>
                </g>
                <path d="M15,1 C21,1 22,19 24.8291016,27.125 C27.6582031,35.25 30,39 30,39 L0,39 C0,39 4.33125545,34.7703676 6.45263672,26.9101562 C8.57401798,19.0499449 10.6769118,1 15,1 Z" id="Triangle" fill="#9B9B9B"></path>
            </g>
            <g id="light" transform="translate(121.000000, 41.000000)">
                <rect id="Rectangle" fill="#9B9B9B" x="10" y="0" width="11" height="16"></rect>
                <g id="Oval">
                    <use fill="black" fill-opacity="1" filter="url(#filter-4)" xlink:href="#path-3"></use>
                    <use fill="#F8E81C" fill-rule="evenodd" xlink:href="#path-3"></use>
                </g>
                <path d="M15,1 C21,1 22,19 24.8291016,27.125 C27.6582031,35.25 30,39 30,39 L0,39 C0,39 4.33125545,34.7703676 6.45263672,26.9101562 C8.57401798,19.0499449 10.6769118,1 15,1 Z" id="Triangle" fill="#9B9B9B"></path>
            </g>
            <g id="light" transform="translate(220.000000, 70.000000) rotate(-5.000000) translate(-220.000000, -70.000000) translate(205.000000, 46.000000)">
                <g id="Oval">
                    <use fill="black" fill-opacity="1" filter="url(#filter-6)" xlink:href="#path-5"></use>
                    <use fill="#F8E81C" fill-rule="evenodd" xlink:href="#path-5"></use>
                </g>
                <path d="M15,1 C21,1 22,19 24.8291016,27.125 C27.6582031,35.25 30,39 30,39 L0,39 C0,39 4.33125545,34.7703676 6.45263672,26.9101562 C8.57401798,19.0499449 10.6769118,1 15,1 Z" id="Triangle" fill="#9B9B9B"></path>
                <rect id="Rectangle" fill="#9B9B9B" x="10" y="0" width="11" height="16"></rect>
            </g>
            <g id="light" transform="translate(244.068620, 79.431893) rotate(-5.000000) translate(-244.068620, -79.431893) translate(232.568620, 60.931893)">
                <rect id="Rectangle" fill="#9B9B9B" x="7.66666667" y="0" width="8.43333333" height="12.3333333"></rect>
                <g id="Oval">
                    <use fill="black" fill-opacity="1" filter="url(#filter-8)" xlink:href="#path-7"></use>
                    <use fill="#F8E81C" fill-rule="evenodd" xlink:href="#path-7"></use>
                </g>
                <path d="M11.5,0.770833333 C16.1,0.770833333 16.8666667,14.6458333 19.0356445,20.9088542 C21.2046224,27.171875 23,30.0625 23,30.0625 L0,30.0625 C0,30.0625 3.32062918,26.8021583 4.94702148,20.7432454 C6.57341379,14.6843326 8.18563241,0.770833333 11.5,0.770833333 Z" id="Triangle" fill="#9B9B9B"></path>
            </g>
            <g id="light" transform="translate(87.500000, 79.500000) rotate(5.000000) translate(-87.500000, -79.500000) translate(76.000000, 61.000000)">
                <rect id="Rectangle" fill="#9B9B9B" x="7.66666667" y="0" width="8.43333333" height="12.3333333"></rect>
                <g id="Oval">
                    <use fill="black" fill-opacity="1" filter="url(#filter-10)" xlink:href="#path-9"></use>
                    <use fill="#F8E81C" fill-rule="evenodd" xlink:href="#path-9"></use>
                </g>
                <path d="M11.5,0.770833333 C16.1,0.770833333 16.8666667,14.6458333 19.0356445,20.9088542 C21.2046224,27.171875 23,30.0625 23,30.0625 L0,30.0625 C0,30.0625 3.32062918,26.8021583 4.94702148,20.7432454 C6.57341379,14.6843326 8.18563241,0.770833333 11.5,0.770833333 Z" id="Triangle" fill="#9B9B9B"></path>
            </g>
            <g id="light" transform="translate(154.000000, 61.000000)">
                <rect id="Rectangle" fill="#9B9B9B" x="6.66666667" y="0" width="7.33333333" height="11.3333333"></rect>
                <g id="Oval">
                    <use fill="black" fill-opacity="1" filter="url(#filter-12)" xlink:href="#path-11"></use>
                    <use fill="#F8E81C" fill-rule="evenodd" xlink:href="#path-11"></use>
                </g>
                <path d="M10,0.708333333 C14,0.708333333 14.6666667,13.4583333 16.5527344,19.2135417 C18.4388021,24.96875 20,27.625 20,27.625 L0,27.625 C0,27.625 2.88750364,24.6290104 4.30175781,19.0613607 C5.71601199,13.493711 7.11794123,0.708333333 10,0.708333333 Z" id="Triangle" fill="#9B9B9B"></path>
            </g>
        </g>
    </g>

</svg>
